<?xml version="1.0" encoding="utf-8" standalone="no"?>
<!DOCTYPE svg PUBLIC "-//W3C//DTD SVG 1.1//EN"
  "http://www.w3.org/Graphics/SVG/1.1/DTD/svg11.dtd">
<svg xmlns:xlink="http://www.w3.org/1999/xlink" width="290.494488pt" height="300.472441pt" viewBox="0 0 290.494488 300.472441" xmlns="http://www.w3.org/2000/svg" version="1.1">
 <metadata>
  <rdf:RDF xmlns:dc="http://purl.org/dc/elements/1.1/" xmlns:cc="http://creativecommons.org/ns#" xmlns:rdf="http://www.w3.org/1999/02/22-rdf-syntax-ns#">
   <cc:Work>
    <dc:type rdf:resource="http://purl.org/dc/dcmitype/StillImage"/>
    <dc:date>2026-09-28T14:54:48.458957</dc:date>
    <dc:format>image/svg+xml</dc:format>
    <dc:creator>
     <cc:Agent>
      <dc:title>Matplotlib v3.11.2, https://matplotlib.org/</dc:title>
     </cc:Agent>
    </dc:creator>
   </cc:Work>
  </rdf:RDF>
 </metadata>
 <defs>
  <style type="text/css">*{stroke-linejoin: round; stroke-linecap: butt}</style>
 </defs>
 <g id="figure_1">
  <g id="patch_1">
   <path d="M 0 300.472441
L 290.494488 300.472441
L 290.494488 0
L 0 0
z
" style="fill: #ffffff"/>
  </g>
  <g id="axes_1">
   <g id="patch_2">
    <path d="M 72.623622 198.311811
L 237.054464 198.311811
L 237.054464 48.075591
L 72.623622 48.075591
z
" style="fill: #ffffff"/>
   </g>
   <g id="matplotlib.axis_1">
    <g id="xtick_1">
     <g id="line2d_1">
      <path d="M 91.095449 198.311811
L 91.095449 48.075591
" clip-path="url(#p53258fe57e)" style="fill: none; stroke: #eeeeee; stroke-width: 0.5; stroke-linecap: square"/>
     </g>
     <g id="line2d_2">
      <defs>
       <path id="mf6114f9f86" d="M 0 0
L 0 2.5
" style="stroke: #000000; stroke-width: 0.6"/>
      </defs>
      <g>
       <use xlink:href="#mf6114f9f86" x="91.095449" y="198.311811" style="stroke: #000000; stroke-width: 0.6"/>
      </g>
     </g>
     <g id="text_1">
      <text style="font-size: 7px; font-family: 'Arial', 'DejaVu Sans', sans-serif; text-anchor: middle" x="91.095449" y="208.908002" transform="rotate(-0 91.095449 208.908002)">−5</text>
     </g>
    </g>
    <g id="xtick_2">
     <g id="line2d_3">
      <path d="M 116.349845 198.311811
L 116.349845 48.075591
" clip-path="url(#p53258fe57e)" style="fill: none; stroke: #eeeeee; stroke-width: 0.5; stroke-linecap: square"/>
     </g>
     <g id="line2d_4">
      <g>
       <use xlink:href="#mf6114f9f86" x="116.349845" y="198.311811" style="stroke: #000000; stroke-width: 0.6"/>
      </g>
     </g>
     <g id="text_2">
      <text style="font-size: 7px; font-family: 'Arial', 'DejaVu Sans', sans-serif; text-anchor: middle" x="116.349845" y="208.908002" transform="rotate(-0 116.349845 208.908002)">0</text>
     </g>
    </g>
    <g id="xtick_3">
     <g id="line2d_5">
      <path d="M 141.604242 198.311811
L 141.604242 48.075591
" clip-path="url(#p53258fe57e)" style="fill: none; stroke: #eeeeee; stroke-width: 0.5; stroke-linecap: square"/>
     </g>
     <g id="line2d_6">
      <g>
       <use xlink:href="#mf6114f9f86" x="141.604242" y="198.311811" style="stroke: #000000; stroke-width: 0.6"/>
      </g>
     </g>
     <g id="text_3">
      <text style="font-size: 7px; font-family: 'Arial', 'DejaVu Sans', sans-serif; text-anchor: middle" x="141.604242" y="208.908002" transform="rotate(-0 141.604242 208.908002)">5</text>
     </g>
    </g>
    <g id="xtick_4">
     <g id="line2d_7">
      <path d="M 166.858638 198.311811
L 166.858638 48.075591
" clip-path="url(#p53258fe57e)" style="fill: none; stroke: #eeeeee; stroke-width: 0.5; stroke-linecap: square"/>
     </g>
     <g id="line2d_8">
      <g>
       <use xlink:href="#mf6114f9f86" x="166.858638" y="198.311811" style="stroke: #000000; stroke-width: 0.6"/>
      </g>
     </g>
     <g id="text_4">
      <text style="font-size: 7px; font-family: 'Arial', 'DejaVu Sans', sans-serif; text-anchor: middle" x="166.858638" y="208.908002" transform="rotate(-0 166.858638 208.908002)">10</text>
     </g>
    </g>
    <g id="xtick_5">
     <g id="line2d_9">
      <path d="M 192.113034 198.311811
L 192.113034 48.075591
" clip-path="url(#p53258fe57e)" style="fill: none; stroke: #eeeeee; stroke-width: 0.5; stroke-linecap: square"/>
     </g>
     <g id="line2d_10">
      <g>
       <use xlink:href="#mf6114f9f86" x="192.113034" y="198.311811" style="stroke: #000000; stroke-width: 0.6"/>
      </g>
     </g>
     <g id="text_5">
      <text style="font-size: 7px; font-family: 'Arial', 'DejaVu Sans', sans-serif; text-anchor: middle" x="192.113034" y="208.908002" transform="rotate(-0 192.113034 208.908002)">15</text>
     </g>
    </g>
    <g id="xtick_6">
     <g id="line2d_11">
      <path d="M 217.36743 198.311811
L 217.36743 48.075591
" clip-path="url(#p53258fe57e)" style="fill: none; stroke: #eeeeee; stroke-width: 0.5; stroke-linecap: square"/>
     </g>
     <g id="line2d_12">
      <g>
       <use xlink:href="#mf6114f9f86" x="217.36743" y="198.311811" style="stroke: #000000; stroke-width: 0.6"/>
      </g>
     </g>
     <g id="text_6">
      <text style="font-size: 7px; font-family: 'Arial', 'DejaVu Sans', sans-serif; text-anchor: middle" x="217.36743" y="208.908002" transform="rotate(-0 217.36743 208.908002)">20</text>
     </g>
    </g>
    <g id="text_7">
     <text style="font-size: 7.5px; font-family: 'Arial', 'DejaVu Sans', sans-serif; text-anchor: middle" x="154.839043" y="219.841352" transform="rotate(-0 154.839043 219.841352)">Yield change vs study control (%)</text>
    </g>
   </g>
   <g id="matplotlib.axis_2">
    <g id="ytick_1">
     <g id="line2d_13">
      <defs>
       <path id="m8ad0af7df2" d="M 0 0
L -2.5 0
" style="stroke: #000000; stroke-width: 0.6"/>
      </defs>
      <g>
       <use xlink:href="#m8ad0af7df2" x="72.623622" y="195.167778" style="stroke: #000000; stroke-width: 0.6"/>
      </g>
     </g>
     <g id="text_8">
      <text style="font-size: 7px; font-family: 'Arial', 'DejaVu Sans', sans-serif; text-anchor: end" x="67.123622" y="197.715874" transform="rotate(-0 67.123622 197.715874)">−10</text>
     </g>
    </g>
    <g id="ytick_2">
     <g id="line2d_14">
      <g>
       <use xlink:href="#m8ad0af7df2" x="72.623622" y="175.389999" style="stroke: #000000; stroke-width: 0.6"/>
      </g>
     </g>
     <g id="text_9">
      <text style="font-size: 7px; font-family: 'Arial', 'DejaVu Sans', sans-serif; text-anchor: end" x="67.123622" y="177.938095" transform="rotate(-0 67.123622 177.938095)">0</text>
     </g>
    </g>
    <g id="ytick_3">
     <g id="line2d_15">
      <g>
       <use xlink:href="#m8ad0af7df2" x="72.623622" y="155.61222" style="stroke: #000000; stroke-width: 0.6"/>
      </g>
     </g>
     <g id="text_10">
      <text style="font-size: 7px; font-family: 'Arial', 'DejaVu Sans', sans-serif; text-anchor: end" x="67.123622" y="158.160316" transform="rotate(-0 67.123622 158.160316)">10</text>
     </g>
    </g>
    <g id="ytick_4">
     <g id="line2d_16">
      <g>
       <use xlink:href="#m8ad0af7df2" x="72.623622" y="135.834441" style="stroke: #000000; stroke-width: 0.6"/>
      </g>
     </g>
     <g id="text_11">
      <text style="font-size: 7px; font-family: 'Arial', 'DejaVu Sans', sans-serif; text-anchor: end" x="67.123622" y="138.382537" transform="rotate(-0 67.123622 138.382537)">20</text>
     </g>
    </g>
    <g id="ytick_5">
     <g id="line2d_17">
      <g>
       <use xlink:href="#m8ad0af7df2" x="72.623622" y="116.056663" style="stroke: #000000; stroke-width: 0.6"/>
      </g>
     </g>
     <g id="text_12">
      <text style="font-size: 7px; font-family: 'Arial', 'DejaVu Sans', sans-serif; text-anchor: end" x="67.123622" y="118.604758" transform="rotate(-0 67.123622 118.604758)">30</text>
     </g>
    </g>
    <g id="ytick_6">
     <g id="line2d_18">
      <g>
       <use xlink:href="#m8ad0af7df2" x="72.623622" y="96.278884" style="stroke: #000000; stroke-width: 0.6"/>
      </g>
     </g>
     <g id="text_13">
      <text style="font-size: 7px; font-family: 'Arial', 'DejaVu Sans', sans-serif; text-anchor: end" x="67.123622" y="98.82698" transform="rotate(-0 67.123622 98.82698)">40</text>
     </g>
    </g>
    <g id="ytick_7">
     <g id="line2d_19">
      <g>
       <use xlink:href="#m8ad0af7df2" x="72.623622" y="76.501105" style="stroke: #000000; stroke-width: 0.6"/>
      </g>
     </g>
     <g id="text_14">
      <text style="font-size: 7px; font-family: 'Arial', 'DejaVu Sans', sans-serif; text-anchor: end" x="67.123622" y="79.049201" transform="rotate(-0 67.123622 79.049201)">50</text>
     </g>
    </g>
    <g id="ytick_8">
     <g id="line2d_20">
      <g>
       <use xlink:href="#m8ad0af7df2" x="72.623622" y="56.723326" style="stroke: #000000; stroke-width: 0.6"/>
      </g>
     </g>
     <g id="text_15">
      <text style="font-size: 7px; font-family: 'Arial', 'DejaVu Sans', sans-serif; text-anchor: end" x="67.123622" y="59.271422" transform="rotate(-0 67.123622 59.271422)">60</text>
     </g>
    </g>
    <g id="text_16">
     <text style="font-size: 7.5px; font-family: 'Arial', 'DejaVu Sans', sans-serif; text-anchor: middle" x="49.671356" y="123.193701" transform="rotate(-90 49.671356 123.193701)">SOC concentration change (%)</text>
    </g>
   </g>
   <g id="line2d_21">
    <path d="M 72.623622 175.389999
L 237.054464 175.389999
" clip-path="url(#p53258fe57e)" style="fill: none; stroke-dasharray: 2.59,1.12; stroke-dashoffset: 0; stroke: #777777; stroke-width: 0.7"/>
   </g>
   <g id="line2d_22">
    <path d="M 116.349845 198.311811
L 116.349845 48.075591
" clip-path="url(#p53258fe57e)" style="fill: none; stroke-dasharray: 2.59,1.12; stroke-dashoffset: 0; stroke: #777777; stroke-width: 0.7"/>
   </g>
   <g id="line2d_23">
    <defs>
     <path id="m1855c7e244" d="M 0 2
C 0.530406 2 1.03916 1.789267 1.414214 1.414214
C 1.789267 1.03916 2 0.530406 2 0
C 2 -0.530406 1.789267 -1.03916 1.414214 -1.414214
C 1.03916 -1.789267 0.530406 -2 0 -2
C -0.530406 -2 -1.03916 -1.789267 -1.414214 -1.414214
C -1.789267 -1.03916 -2 -0.530406 -2 0
C -2 0.530406 -1.789267 1.03916 -1.414214 1.414214
C -1.03916 1.789267 -0.530406 2 0 2
z
" style="stroke: #777777"/>
    </defs>
    <g>
     <use xlink:href="#m1855c7e244" x="80.845164" y="244.885039" style="fill: #777777; stroke: #777777"/>
    </g>
   </g>
   <g id="line2d_24">
    <defs>
     <path id="m05bb638cfe" d="M -0 2
L 2 -2
L -2 -2
z
" style="stroke: #777777; stroke-linejoin: miter"/>
    </defs>
    <g>
     <use xlink:href="#m05bb638cfe" x="174.570744" y="244.885039" style="fill: #777777; stroke: #777777; stroke-linejoin: miter"/>
    </g>
   </g>
   <g id="line2d_25">
    <defs>
     <path id="m1b1a986b93" d="M -2 2
L 2 2
L 2 -2
L -2 -2
z
" style="stroke: #777777; stroke-linejoin: miter"/>
    </defs>
    <g>
     <use xlink:href="#m1b1a986b93" x="80.845164" y="258.406299" style="fill: #777777; stroke: #777777; stroke-linejoin: miter"/>
    </g>
   </g>
   <g id="line2d_26">
    <defs>
     <path id="med5c41f430" d="M 0 -2
L -2 2
L 2 2
z
" style="stroke: #777777; stroke-linejoin: miter"/>
    </defs>
    <g>
     <use xlink:href="#med5c41f430" x="174.570744" y="258.406299" style="fill: #777777; stroke: #777777; stroke-linejoin: miter"/>
    </g>
   </g>
   <g id="line2d_27">
    <defs>
     <path id="m62b2701120" d="M 0 2.828427
L 2.828427 0
L 0 -2.828427
L -2.828427 0
z
" style="stroke: #777777; stroke-linejoin: miter"/>
    </defs>
    <g>
     <use xlink:href="#m62b2701120" x="80.845164" y="271.927559" style="fill: #777777; stroke: #777777; stroke-linejoin: miter"/>
    </g>
   </g>
   <g id="patch_3">
    <path d="M 72.623622 198.311811
L 72.623622 48.075591
" style="fill: none; stroke: #000000; stroke-width: 0.6; stroke-linejoin: miter; stroke-linecap: square"/>
   </g>
   <g id="patch_4">
    <path d="M 72.623622 198.311811
L 237.054464 198.311811
" style="fill: none; stroke: #000000; stroke-width: 0.6; stroke-linejoin: miter; stroke-linecap: square"/>
   </g>
   <g id="text_17">
    <text style="font-size: 6.5px; font-family: 'Arial', 'DejaVu Sans', sans-serif; text-anchor: start" x="88.244552" y="246.567168" transform="rotate(-0 88.244552 246.567168)">Tai Lake trial</text>
   </g>
   <g id="text_18">
    <text style="font-size: 6.5px; font-family: 'Arial', 'DejaVu Sans', sans-serif; text-anchor: start" x="181.970132" y="246.567105" transform="rotate(-0 181.970132 246.567105)">Dong 2024</text>
   </g>
   <g id="text_19">
    <text style="font-size: 6.5px; font-family: 'Arial', 'DejaVu Sans', sans-serif; text-anchor: start" x="88.244552" y="260.088428" transform="rotate(-0 88.244552 260.088428)">Du 2024</text>
   </g>
   <g id="text_20">
    <text style="font-size: 6.5px; font-family: 'Arial', 'DejaVu Sans', sans-serif; text-anchor: start" x="181.970132" y="260.088428" transform="rotate(-0 181.970132 260.088428)">Korav 2024</text>
   </g>
   <g id="text_21">
    <text style="font-size: 6.5px; font-family: 'Arial', 'DejaVu Sans', sans-serif; text-anchor: start" x="88.244552" y="273.609688" transform="rotate(-0 88.244552 273.609688)">Mono-rice trial</text>
   </g>
   <g id="text_22">
    <text style="font-size: 7px; font-family: 'Arial', 'DejaVu Sans', sans-serif; text-anchor: middle; fill: #555555" x="154.839043" y="27.04252" transform="rotate(-0 154.839043 27.04252)">5 independent trials · 33 paired records</text>
   </g>
   <g id="PathCollection_1">
    <defs>
     <path id="m1dae5c6bcd" d="M 0 2.598076
C 0.689018 2.598076 1.349908 2.324327 1.837117 1.837117
C 2.324327 1.349908 2.598076 0.689018 2.598076 0
C 2.598076 -0.689018 2.324327 -1.349908 1.837117 -1.837117
C 1.349908 -2.324327 0.689018 -2.598076 0 -2.598076
C -0.689018 -2.598076 -1.349908 -2.324327 -1.837117 -1.837117
C -2.324327 -1.349908 -2.598076 -0.689018 -2.598076 0
C -2.598076 0.689018 -2.324327 1.349908 -1.837117 1.837117
C -1.349908 2.324327 -0.689018 2.598076 0 2.598076
z
" style="stroke: #333333; stroke-opacity: 0.85; stroke-width: 0.4"/>
    </defs>
    <g clip-path="url(#p53258fe57e)">
     <use xlink:href="#m1dae5c6bcd" x="175.080999" y="155.191416" style="fill: #e16db7; fill-opacity: 0.85; stroke: #333333; stroke-opacity: 0.85; stroke-width: 0.4"/>
     <use xlink:href="#m1dae5c6bcd" x="186.82723" y="62.61458" style="fill: #e16db7; fill-opacity: 0.85; stroke: #333333; stroke-opacity: 0.85; stroke-width: 0.4"/>
    </g>
   </g>
   <g id="PathCollection_2">
    <defs>
     <path id="m0966748f4d" d="M -0 2.598076
L 2.598076 -2.598076
L -2.598076 -2.598076
z
" style="stroke: #333333; stroke-opacity: 0.85; stroke-width: 0.4"/>
    </defs>
    <g clip-path="url(#p53258fe57e)">
     <use xlink:href="#m0966748f4d" x="143.900281" y="172.637048" style="fill: #e16db7; fill-opacity: 0.85; stroke: #333333; stroke-opacity: 0.85; stroke-width: 0.4"/>
     <use xlink:href="#m0966748f4d" x="160.226149" y="172.347264" style="fill: #e16db7; fill-opacity: 0.85; stroke: #333333; stroke-opacity: 0.85; stroke-width: 0.4"/>
     <use xlink:href="#m0966748f4d" x="154.103983" y="168.000499" style="fill: #e16db7; fill-opacity: 0.85; stroke: #333333; stroke-opacity: 0.85; stroke-width: 0.4"/>
     <use xlink:href="#m0966748f4d" x="124.1202" y="165.677697" style="fill: #e16db7; fill-opacity: 0.85; stroke: #333333; stroke-opacity: 0.85; stroke-width: 0.4"/>
     <use xlink:href="#m0966748f4d" x="153.260139" y="165.383385" style="fill: #e16db7; fill-opacity: 0.85; stroke: #333333; stroke-opacity: 0.85; stroke-width: 0.4"/>
     <use xlink:href="#m0966748f4d" x="134.804861" y="164.05898" style="fill: #e16db7; fill-opacity: 0.85; stroke: #333333; stroke-opacity: 0.85; stroke-width: 0.4"/>
     <use xlink:href="#m0966748f4d" x="218.081675" y="177.805389" style="fill: #e16db7; fill-opacity: 0.85; stroke: #333333; stroke-opacity: 0.85; stroke-width: 0.4"/>
     <use xlink:href="#m0966748f4d" x="127.653595" y="165.586359" style="fill: #e16db7; fill-opacity: 0.85; stroke: #333333; stroke-opacity: 0.85; stroke-width: 0.4"/>
     <use xlink:href="#m0966748f4d" x="200.233884" y="183.772822" style="fill: #e16db7; fill-opacity: 0.85; stroke: #333333; stroke-opacity: 0.85; stroke-width: 0.4"/>
     <use xlink:href="#m0966748f4d" x="108.086889" y="170.908192" style="fill: #e16db7; fill-opacity: 0.85; stroke: #333333; stroke-opacity: 0.85; stroke-width: 0.4"/>
     <use xlink:href="#m0966748f4d" x="184.521392" y="170.908192" style="fill: #e16db7; fill-opacity: 0.85; stroke: #333333; stroke-opacity: 0.85; stroke-width: 0.4"/>
     <use xlink:href="#m0966748f4d" x="104.988106" y="172.209362" style="fill: #e16db7; fill-opacity: 0.85; stroke: #333333; stroke-opacity: 0.85; stroke-width: 0.4"/>
     <use xlink:href="#m0966748f4d" x="164.858614" y="153.316585" style="fill: #e16db7; fill-opacity: 0.85; stroke: #333333; stroke-opacity: 0.85; stroke-width: 0.4"/>
     <use xlink:href="#m0966748f4d" x="178.378673" y="152.875117" style="fill: #e16db7; fill-opacity: 0.85; stroke: #333333; stroke-opacity: 0.85; stroke-width: 0.4"/>
     <use xlink:href="#m0966748f4d" x="174.441342" y="144.634376" style="fill: #e16db7; fill-opacity: 0.85; stroke: #333333; stroke-opacity: 0.85; stroke-width: 0.4"/>
     <use xlink:href="#m0966748f4d" x="140.246788" y="172.273157" style="fill: #e16db7; fill-opacity: 0.85; stroke: #333333; stroke-opacity: 0.85; stroke-width: 0.4"/>
     <use xlink:href="#m0966748f4d" x="153.015283" y="162.355933" style="fill: #e16db7; fill-opacity: 0.85; stroke: #333333; stroke-opacity: 0.85; stroke-width: 0.4"/>
     <use xlink:href="#m0966748f4d" x="147.83703" y="157.255646" style="fill: #e16db7; fill-opacity: 0.85; stroke: #333333; stroke-opacity: 0.85; stroke-width: 0.4"/>
    </g>
   </g>
   <g id="PathCollection_3">
    <defs>
     <path id="m1fe60d4e15" d="M -2.598076 2.598076
L 2.598076 2.598076
L 2.598076 -2.598076
L -2.598076 -2.598076
z
" style="stroke: #333333; stroke-opacity: 0.85; stroke-width: 0.4"/>
    </defs>
    <g clip-path="url(#p53258fe57e)">
     <use xlink:href="#m1fe60d4e15" x="135.831239" y="168.216711" style="fill: #5394c3; fill-opacity: 0.85; stroke: #333333; stroke-opacity: 0.85; stroke-width: 0.4"/>
     <use xlink:href="#m1fe60d4e15" x="143.5267" y="156.939371" style="fill: #5394c3; fill-opacity: 0.85; stroke: #333333; stroke-opacity: 0.85; stroke-width: 0.4"/>
     <use xlink:href="#m1fe60d4e15" x="158.863207" y="167.466698" style="fill: #5394c3; fill-opacity: 0.85; stroke: #333333; stroke-opacity: 0.85; stroke-width: 0.4"/>
     <use xlink:href="#m1fe60d4e15" x="177.048841" y="166.448869" style="fill: #5394c3; fill-opacity: 0.85; stroke: #333333; stroke-opacity: 0.85; stroke-width: 0.4"/>
     <use xlink:href="#m1fe60d4e15" x="138.861016" y="153.000061" style="fill: #5394c3; fill-opacity: 0.85; stroke: #333333; stroke-opacity: 0.85; stroke-width: 0.4"/>
     <use xlink:href="#m1fe60d4e15" x="115.654465" y="167.13603" style="fill: #5394c3; fill-opacity: 0.85; stroke: #333333; stroke-opacity: 0.85; stroke-width: 0.4"/>
    </g>
   </g>
   <g id="PathCollection_4">
    <defs>
     <path id="m73c7c74dbb" d="M 0 -2.598076
L -2.598076 2.598076
L 2.598076 2.598076
z
" style="stroke: #333333; stroke-opacity: 0.85; stroke-width: 0.4"/>
    </defs>
    <g clip-path="url(#p53258fe57e)">
     <use xlink:href="#m73c7c74dbb" x="113.890002" y="169.209443" style="fill: #908ebc; fill-opacity: 0.85; stroke: #333333; stroke-opacity: 0.85; stroke-width: 0.4"/>
    </g>
   </g>
   <g id="PathCollection_5">
    <defs>
     <path id="m9c3d00cbf8" d="M 0 3.674235
L 3.674235 0
L 0 -3.674235
L -3.674235 0
z
" style="stroke: #333333; stroke-opacity: 0.85; stroke-width: 0.4"/>
    </defs>
    <g clip-path="url(#p53258fe57e)">
     <use xlink:href="#m9c3d00cbf8" x="142.871382" y="171.610806" style="fill: #5394c3; fill-opacity: 0.85; stroke: #333333; stroke-opacity: 0.85; stroke-width: 0.4"/>
     <use xlink:href="#m9c3d00cbf8" x="136.051857" y="168.623917" style="fill: #5394c3; fill-opacity: 0.85; stroke: #333333; stroke-opacity: 0.85; stroke-width: 0.4"/>
     <use xlink:href="#m9c3d00cbf8" x="140.7334" y="168.852748" style="fill: #5394c3; fill-opacity: 0.85; stroke: #333333; stroke-opacity: 0.85; stroke-width: 0.4"/>
    </g>
   </g>
   <g id="PathCollection_6">
    <defs>
     <path id="m77b882f736" d="M 0 3.674235
L 3.674235 0
L 0 -3.674235
L -3.674235 0
z
" style="stroke: #333333; stroke-opacity: 0.85; stroke-width: 0.4"/>
    </defs>
    <g clip-path="url(#p53258fe57e)">
     <use xlink:href="#m77b882f736" x="91.596412" y="173.500402" style="fill: #908ebc; fill-opacity: 0.85; stroke: #333333; stroke-opacity: 0.85; stroke-width: 0.4"/>
     <use xlink:href="#m77b882f736" x="138.439979" y="174.140876" style="fill: #908ebc; fill-opacity: 0.85; stroke: #333333; stroke-opacity: 0.85; stroke-width: 0.4"/>
     <use xlink:href="#m77b882f736" x="138.991718" y="176.946487" style="fill: #908ebc; fill-opacity: 0.85; stroke: #333333; stroke-opacity: 0.85; stroke-width: 0.4"/>
    </g>
   </g>
   <g id="legend_1">
    <g id="line2d_28">
     <defs>
      <path id="m34cf7a3881" d="M 0 2
C 0.530406 2 1.03916 1.789267 1.414214 1.414214
C 1.789267 1.03916 2 0.530406 2 0
C 2 -0.530406 1.789267 -1.03916 1.414214 -1.414214
C 1.03916 -1.789267 0.530406 -2 0 -2
C -0.530406 -2 -1.03916 -1.789267 -1.414214 -1.414214
C -1.789267 -1.03916 -2 -0.530406 -2 0
C -2 0.530406 -1.789267 1.03916 -1.414214 1.414214
C -1.03916 1.789267 -0.530406 2 0 2
z
" style="stroke: #5394c3"/>
     </defs>
     <g>
      <use xlink:href="#m34cf7a3881" x="94.265137" y="36.574276" style="fill: #5394c3; stroke: #5394c3"/>
     </g>
    </g>
    <g id="text_23">
     <text style="font-size: 6.5px; font-family: 'Arial', 'DejaVu Sans', sans-serif; text-anchor: start" x="102.715137" y="38.849276" transform="rotate(-0 102.715137 38.849276)">Direct return</text>
    </g>
    <g id="line2d_29">
     <defs>
      <path id="m0e15122347" d="M 0 2
C 0.530406 2 1.03916 1.789267 1.414214 1.414214
C 1.789267 1.03916 2 0.530406 2 0
C 2 -0.530406 1.789267 -1.03916 1.414214 -1.414214
C 1.03916 -1.789267 0.530406 -2 0 -2
C -0.530406 -2 -1.03916 -1.789267 -1.414214 -1.414214
C -1.789267 -1.03916 -2 -0.530406 -2 0
C -2 0.530406 -1.789267 1.03916 -1.414214 1.414214
C -1.03916 1.789267 -0.530406 2 0 2
z
" style="stroke: #e16db7"/>
     </defs>
     <g>
      <use xlink:href="#m0e15122347" x="149.522246" y="36.574276" style="fill: #e16db7; stroke: #e16db7"/>
     </g>
    </g>
    <g id="text_24">
     <text style="font-size: 6.5px; font-family: 'Arial', 'DejaVu Sans', sans-serif; text-anchor: start" x="157.972246" y="38.849276" transform="rotate(-0 157.972246 38.849276)">Biochar</text>
    </g>
    <g id="line2d_30">
     <defs>
      <path id="me995b4980f" d="M 0 2
C 0.530406 2 1.03916 1.789267 1.414214 1.414214
C 1.789267 1.03916 2 0.530406 2 0
C 2 -0.530406 1.789267 -1.03916 1.414214 -1.414214
C 1.03916 -1.789267 0.530406 -2 0 -2
C -0.530406 -2 -1.03916 -1.789267 -1.414214 -1.414214
C -1.789267 -1.03916 -2 -0.530406 -2 0
C -2 0.530406 -1.789267 1.03916 -1.414214 1.414214
C -1.03916 1.789267 -0.530406 2 0 2
z
" style="stroke: #908ebc"/>
     </defs>
     <g>
      <use xlink:href="#me995b4980f" x="191.060293" y="36.574276" style="fill: #908ebc; stroke: #908ebc"/>
     </g>
    </g>
    <g id="text_25">
     <text style="font-size: 6.5px; font-family: 'Arial', 'DejaVu Sans', sans-serif; text-anchor: start" x="199.510293" y="38.849276" transform="rotate(-0 199.510293 38.849276)">Burning</text>
    </g>
   </g>
  </g>
 </g>
 <defs>
  <clipPath id="p53258fe57e">
   <rect x="72.623622" y="48.075591" width="164.430842" height="150.23622"/>
  </clipPath>
 </defs>
</svg>
